<?xml version="1.0" encoding="UTF-8"?>
<svg version="1.1" xmlns="http://www.w3.org/2000/svg" width="515" height="484">
<path d="M0 0 C9.14030007 8.040275 13.7483072 22.08859564 18.77368164 32.88256836 C19.60564354 34.65829668 20.43832161 36.43368964 21.27172852 38.20874023 C21.67797455 39.07415436 22.08422058 39.93956848 22.5027771 40.83120728 C24.05539399 44.13377681 25.613311 47.4338305 27.17242432 50.7333374 C28.12539755 52.76241614 29.06216752 54.79817879 29.99584961 56.83618164 C30.76566162 58.46982666 30.76566162 58.46982666 31.55102539 60.13647461 C31.97633545 61.05759033 32.40164551 61.97870605 32.83984375 62.92773438 C34.04622619 65.12246658 34.04622619 65.12246658 36.37744141 65.74560547 C36.98257568 65.81142822 37.58770996 65.87725098 38.21118164 65.94506836 C38.46641602 65.10588867 38.72165039 64.26670898 38.98461914 63.40209961 C40.31811768 59.6436722 42.01207137 56.16763507 43.83618164 52.63256836 C46.75948238 46.88857413 49.56379544 41.10511282 52.27368164 35.25756836 C63.86950191 10.39438154 63.86950191 10.39438154 73.21118164 4.94506836 C79.7982011 2.78280762 88.41379188 2.65212435 94.71118164 5.63256836 C102.64588321 10.40669697 106.87303516 17.79342031 110.53930664 26.03491211 C113.08628265 31.69778925 115.76037327 37.2918221 118.46118164 42.88256836 C122.10979751 50.45503895 125.62812104 58.06861067 129.02368164 65.75756836 C133.30813664 77.37595389 133.30813664 77.37595389 141.21020508 86.03076172 C145.39908014 87.30698504 149.35524435 87.24303531 153.71118164 87.25366211 C155.58618486 87.27881363 157.46118479 87.30421178 159.33618164 87.32983398 C162.2788819 87.35860203 165.22152518 87.3826342 168.16430664 87.40136719 C171.0135568 87.42303177 173.86215679 87.46246045 176.71118164 87.50366211 C178.02699219 87.50383583 178.02699219 87.50383583 179.36938477 87.50401306 C184.1165506 87.58082626 187.37184139 87.82988938 191.21118164 90.94506836 C192.64853411 93.81977329 192.59290813 95.76401424 192.21118164 98.94506836 C190.05886526 101.43889724 188.28825044 102.76712741 184.9961853 103.31100464 C182.2303822 103.45883978 179.49251 103.47300294 176.72290039 103.44116211 C175.19715141 103.44334496 175.19715141 103.44334496 173.64057922 103.4455719 C171.49131402 103.44391425 169.34203679 103.43236811 167.19287109 103.41162109 C163.92046015 103.38276043 160.64967982 103.39099729 157.37719727 103.40405273 C155.2840905 103.39781189 153.19098882 103.38941826 151.09790039 103.37866211 C150.12680832 103.38159775 149.15571625 103.38453339 148.15519714 103.38755798 C139.02183151 103.26221163 132.16389956 100.9667188 125.42602539 94.59741211 C120.81602158 89.07679026 118.11822693 82.4638184 115.21118164 75.94506836 C113.92147421 73.08232406 112.62985671 70.2204624 111.3359375 67.35961914 C110.48211567 65.463261 109.6361402 63.56334396 108.79931641 61.65942383 C105.29417666 53.32380617 105.29417666 53.32380617 100.21118164 45.94506836 C97.29443855 45.06621079 95.0739697 44.82385713 92.21118164 45.94506836 C88.94542106 49.58246301 86.7353383 53.50726848 84.62524414 57.87866211 C84.28739899 58.5659288 83.94955383 59.2531955 83.60147095 59.96128845 C82.46288339 62.2851879 81.33555592 64.61426016 80.21118164 66.94506836 C79.80299194 67.79111633 79.39480225 68.63716431 78.97424316 69.5088501 C77.66394756 72.22787284 76.35546671 74.94776404 75.04711914 77.66772461 C73.68671073 80.4916661 72.32613271 83.31552533 70.96508789 86.13916016 C70.0388515 88.06592207 69.1160477 89.99433754 68.1965332 91.92431641 C66.84404665 94.76029076 65.47810217 97.58944152 64.10961914 100.41772461 C63.70633392 101.27197525 63.30304871 102.12622589 62.88754272 103.00636292 C59.60514018 109.74103709 55.65652883 115.98069574 49.02368164 119.82006836 C48.37012695 120.20936523 47.71657227 120.59866211 47.04321289 120.99975586 C40.95749187 124.139936 33.855586 123.54728023 27.21118164 122.94506836 C18.81392409 120.24324804 12.65743492 115.40565324 8.39868164 107.69506836 C7.89002563 106.77697388 7.89002563 106.77697388 7.37109375 105.84033203 C2.13003458 96.28068847 -2.6134573 86.47331677 -7.24926758 76.609375 C-11.56577966 67.41114489 -11.56577966 67.41114489 -16.10131836 58.32006836 C-16.74520508 57.06323242 -16.74520508 57.06323242 -17.40209961 55.78100586 C-18.65886947 53.76779455 -18.65886947 53.76779455 -20.95678711 53.17163086 C-21.56135742 53.09686523 -22.16592773 53.02209961 -22.78881836 52.94506836 C-25.43124246 57.1480843 -27.56869375 61.50801726 -29.69506836 65.98413086 C-30.44614535 67.54934306 -31.19745437 69.11444393 -31.94897461 70.67944336 C-33.12336625 73.1316322 -34.29578584 75.58470963 -35.46411133 78.03979492 C-36.59801069 80.419795 -37.73970385 82.79592563 -38.88256836 85.17163086 C-39.22952759 85.90604401 -39.57648682 86.64045715 -39.93395996 87.39712524 C-41.54565382 90.73500944 -42.93600765 93.5478144 -45.78881836 95.94506836 C-49.77153436 96.63771462 -51.3321405 96.24628141 -54.72631836 94.00756836 C-57.04679922 90.56200587 -57.09682069 88.91235892 -56.53515625 84.87695312 C-54.9981704 78.83911765 -52.21303961 73.23150294 -49.5793457 67.60644531 C-48.54244556 65.39032062 -47.52549561 63.16588126 -46.51147461 60.93920898 C-36.61007105 39.36411503 -36.61007105 39.36411503 -28.78881836 35.94506836 C-22.01895444 34.31584849 -15.81835127 34.28295941 -9.78881836 37.94506836 C-2.02734315 44.44645637 1.50233803 54.28456649 5.58618164 63.25756836 C6.33960218 64.88397897 7.0944916 66.50970991 7.85083008 68.13476562 C10.51985438 73.87899364 13.15748477 79.63737435 15.78833008 85.39916992 C16.64377158 87.27125886 17.5025569 89.14182662 18.3659668 91.01025391 C19.06648998 92.52763771 19.75725586 94.0495887 20.43530273 95.57714844 C22.65877917 100.40257799 25.34667356 104.51281432 30.21118164 106.94506836 C32.47912048 107.25750124 32.47912048 107.25750124 35.02368164 107.32006836 C35.87575195 107.36905273 36.72782227 107.41803711 37.60571289 107.46850586 C41.3426884 106.71774916 42.69632949 104.75618544 45.21118164 101.94506836 C46.89750819 99.21062125 46.89750819 99.21062125 48.26977539 96.20288086 C48.81351807 95.06890869 49.35726074 93.93493652 49.91748047 92.76660156 C50.49460458 91.53445055 51.07167011 90.3022721 51.64868164 89.07006836 C52.2594751 87.78999268 52.87106253 86.51029558 53.48339844 85.23095703 C56.75096722 78.36841064 59.88785406 71.45670349 62.92211914 64.48803711 C63.53214228 63.0978634 64.14224888 61.70772632 64.75244141 60.31762695 C65.9091429 57.68008188 67.03833634 55.03300987 68.15234375 52.37719727 C72.28393349 42.76070654 77.42175138 33.83248701 87.27368164 29.32006836 C88.57639381 28.83461322 89.88586649 28.36490815 91.21118164 27.94506836 C91.10504328 25.49282142 91.10504328 25.49282142 90.21118164 22.94506836 C87.50691795 21.24524547 85.4424334 20.96474936 82.27368164 20.69506836 C74.72392894 23.77660007 71.12800997 36.00913552 67.83618164 43.07006836 C66.88013495 45.09266945 65.9230978 47.11480266 64.96508789 49.13647461 C64.49989746 50.12019043 64.03470703 51.10390625 63.55541992 52.11743164 C61.66293979 56.09830793 59.73315566 60.05928971 57.77368164 64.00756836 C57.46833496 64.63099121 57.16298828 65.25441406 56.84838867 65.89672852 C53.23277243 73.14594914 50.05725394 79.22868853 42.21118164 81.94506836 C35.03240306 82.88048496 28.26425508 82.12828149 22.21118164 77.94506836 C19.29022583 74.59909995 17.27023977 71.35034077 15.43383789 67.31616211 C14.9265918 66.21151611 14.4193457 65.10687012 13.89672852 63.96875 C13.36112305 62.78531006 12.82551758 61.60187012 12.27368164 60.38256836 C11.70617987 59.14576499 11.13780573 57.90936156 10.56860352 56.67333984 C7.86443334 50.79344725 5.18907504 44.90073239 2.52818298 39.00114441 C1.37373628 36.44696473 0.21083487 33.89668497 -0.95339966 31.34695435 C-1.77302186 29.54234836 -2.57976008 27.73190842 -3.38623047 25.92138672 C-7.34940267 16.82137291 -7.34940267 16.82137291 -14.96459961 10.91381836 C-19.45727783 9.92822168 -23.58511123 9.30723086 -27.84350586 11.32788086 C-37.45890702 19.32140713 -41.59275392 36.52007591 -46.41319275 47.77227783 C-50.00537659 56.15723467 -53.65028684 64.51692503 -57.37762451 72.84277344 C-57.97846032 74.1878021 -58.57638941 75.53413351 -59.17120361 76.88183594 C-67.14072807 94.92762116 -67.14072807 94.92762116 -73.66381836 98.75756836 C-74.27999023 99.13526367 -74.89616211 99.51295898 -75.53100586 99.90209961 C-81.9849232 102.88340745 -87.91071796 103.26387071 -94.92163086 103.28100586 C-96.35392532 103.29099106 -96.35392532 103.29099106 -97.81515503 103.30117798 C-99.82377202 103.31125956 -101.83242219 103.3159964 -103.84106445 103.31567383 C-106.91144543 103.32006497 -109.98040825 103.35648127 -113.05053711 103.39428711 C-115.00756347 103.40015264 -116.96459662 103.4041238 -118.92163086 103.40600586 C-119.83631134 103.42037689 -120.75099182 103.43474792 -121.69338989 103.44955444 C-125.88707378 103.41947684 -128.20253069 103.29658051 -131.86645508 101.09985352 C-133.78881836 98.94506836 -133.78881836 98.94506836 -134.41381836 96.00756836 C-133.55996066 91.82366561 -132.15963316 90.5494686 -128.78881836 87.94506836 C-125.71335403 87.24397467 -122.72118423 87.29410571 -119.57788086 87.34350586 C-118.69151947 87.33549957 -117.80515808 87.32749329 -116.89193726 87.31924438 C-114.06543029 87.29621108 -111.24036344 87.30561772 -108.41381836 87.32006836 C-105.59468356 87.32392622 -102.77618684 87.32038032 -99.9571228 87.29946899 C-98.20636754 87.28746025 -96.45543296 87.28991551 -94.70474243 87.30917358 C-89.31295594 87.28466332 -85.56726002 86.49840159 -80.78881836 83.94506836 C-79.02791458 81.89979775 -79.02791458 81.89979775 -77.97631836 79.25756836 C-77.48260742 78.17088867 -76.98889648 77.08420898 -76.48022461 75.96459961 C-75.91190226 74.62666696 -75.34850439 73.2866367 -74.78881836 71.94506836 C-74.30517822 70.79143799 -74.30517822 70.79143799 -73.81176758 69.61450195 C-72.25701391 65.89299422 -70.71147532 62.16779025 -69.17553711 58.43847656 C-65.42123524 49.35844903 -61.51539031 40.34911835 -57.54364014 31.36230469 C-56.83799006 29.76417089 -56.13454105 28.16506322 -55.43341064 26.56494141 C-43.96869398 0.42202207 -43.96869398 0.42202207 -32.10131836 -4.92993164 C-20.77826739 -8.77549612 -9.68405917 -7.16600126 0 0 Z " fill="#B2B2B2" transform="translate(229.788818359375,186.054931640625)"/>
<path d="M0 0 C9.14030007 8.040275 13.7483072 22.08859564 18.77368164 32.88256836 C19.60564354 34.65829668 20.43832161 36.43368964 21.27172852 38.20874023 C21.67797455 39.07415436 22.08422058 39.93956848 22.5027771 40.83120728 C24.05539399 44.13377681 25.613311 47.4338305 27.17242432 50.7333374 C28.12539755 52.76241614 29.06216752 54.79817879 29.99584961 56.83618164 C30.76566162 58.46982666 30.76566162 58.46982666 31.55102539 60.13647461 C31.97633545 61.05759033 32.40164551 61.97870605 32.83984375 62.92773438 C34.04622619 65.12246658 34.04622619 65.12246658 36.37744141 65.74560547 C36.98257568 65.81142822 37.58770996 65.87725098 38.21118164 65.94506836 C38.46641602 65.10588867 38.72165039 64.26670898 38.98461914 63.40209961 C40.31811768 59.6436722 42.01207137 56.16763507 43.83618164 52.63256836 C46.75948238 46.88857413 49.56379544 41.10511282 52.27368164 35.25756836 C63.86950191 10.39438154 63.86950191 10.39438154 73.21118164 4.94506836 C79.7982011 2.78280762 88.41379188 2.65212435 94.71118164 5.63256836 C98.03767496 7.62000716 100.74348905 9.93756801 103.21118164 12.94506836 C103.21118164 13.93506836 103.21118164 14.92506836 103.21118164 15.94506836 C102.46868164 16.04819336 101.72618164 16.15131836 100.96118164 16.25756836 C98.02486594 16.99164728 96.55009876 18.09006513 94.21118164 19.94506836 C93.55118164 19.94506836 92.89118164 19.94506836 92.21118164 19.94506836 C92.54118164 23.24506836 92.87118164 26.54506836 93.21118164 29.94506836 C88.91284803 33.09019051 85.39049161 34.70203397 80.21118164 35.94506836 C81.20118164 36.60506836 82.19118164 37.26506836 83.21118164 37.94506836 C82.22118164 38.60506836 81.23118164 39.26506836 80.21118164 39.94506836 C79.22118164 38.95506836 78.23118164 37.96506836 77.21118164 36.94506836 C81.61648226 32.80756717 85.52428554 30.03413223 91.21118164 27.94506836 C91.10504328 25.49282142 91.10504328 25.49282142 90.21118164 22.94506836 C87.50691795 21.24524547 85.4424334 20.96474936 82.27368164 20.69506836 C74.72392894 23.77660007 71.12800997 36.00913552 67.83618164 43.07006836 C66.88013495 45.09266945 65.9230978 47.11480266 64.96508789 49.13647461 C64.49989746 50.12019043 64.03470703 51.10390625 63.55541992 52.11743164 C61.66293979 56.09830793 59.73315566 60.05928971 57.77368164 64.00756836 C57.46833496 64.63099121 57.16298828 65.25441406 56.84838867 65.89672852 C53.23277243 73.14594914 50.05725394 79.22868853 42.21118164 81.94506836 C35.03240306 82.88048496 28.26425508 82.12828149 22.21118164 77.94506836 C19.29022583 74.59909995 17.27023977 71.35034077 15.43383789 67.31616211 C14.9265918 66.21151611 14.4193457 65.10687012 13.89672852 63.96875 C13.36112305 62.78531006 12.82551758 61.60187012 12.27368164 60.38256836 C11.70617987 59.14576499 11.13780573 57.90936156 10.56860352 56.67333984 C7.86443334 50.79344725 5.18907504 44.90073239 2.52818298 39.00114441 C1.37373628 36.44696473 0.21083487 33.89668497 -0.95339966 31.34695435 C-1.77302186 29.54234836 -2.57976008 27.73190842 -3.38623047 25.92138672 C-7.34940267 16.82137291 -7.34940267 16.82137291 -14.96459961 10.91381836 C-19.45727783 9.92822168 -23.58511123 9.30723086 -27.84350586 11.32788086 C-37.45890702 19.32140713 -41.59275392 36.52007591 -46.41319275 47.77227783 C-50.00537659 56.15723467 -53.65028684 64.51692503 -57.37762451 72.84277344 C-57.97846032 74.1878021 -58.57638941 75.53413351 -59.17120361 76.88183594 C-67.14072807 94.92762116 -67.14072807 94.92762116 -73.66381836 98.75756836 C-74.27999023 99.13526367 -74.89616211 99.51295898 -75.53100586 99.90209961 C-81.9849232 102.88340745 -87.91071796 103.26387071 -94.92163086 103.28100586 C-96.35392532 103.29099106 -96.35392532 103.29099106 -97.81515503 103.30117798 C-99.82377202 103.31125956 -101.83242219 103.3159964 -103.84106445 103.31567383 C-106.91144543 103.32006497 -109.98040825 103.35648127 -113.05053711 103.39428711 C-115.00756347 103.40015264 -116.96459662 103.4041238 -118.92163086 103.40600586 C-119.83631134 103.42037689 -120.75099182 103.43474792 -121.69338989 103.44955444 C-125.88707378 103.41947684 -128.20253069 103.29658051 -131.86645508 101.09985352 C-133.78881836 98.94506836 -133.78881836 98.94506836 -134.41381836 96.00756836 C-133.55996066 91.82366561 -132.15963316 90.5494686 -128.78881836 87.94506836 C-125.71335403 87.24397467 -122.72118423 87.29410571 -119.57788086 87.34350586 C-118.69151947 87.33549957 -117.80515808 87.32749329 -116.89193726 87.31924438 C-114.06543029 87.29621108 -111.24036344 87.30561772 -108.41381836 87.32006836 C-105.59468356 87.32392622 -102.77618684 87.32038032 -99.9571228 87.29946899 C-98.20636754 87.28746025 -96.45543296 87.28991551 -94.70474243 87.30917358 C-89.31295594 87.28466332 -85.56726002 86.49840159 -80.78881836 83.94506836 C-79.02791458 81.89979775 -79.02791458 81.89979775 -77.97631836 79.25756836 C-77.48260742 78.17088867 -76.98889648 77.08420898 -76.48022461 75.96459961 C-75.91190226 74.62666696 -75.34850439 73.2866367 -74.78881836 71.94506836 C-74.30517822 70.79143799 -74.30517822 70.79143799 -73.81176758 69.61450195 C-72.25701391 65.89299422 -70.71147532 62.16779025 -69.17553711 58.43847656 C-65.42123524 49.35844903 -61.51539031 40.34911835 -57.54364014 31.36230469 C-56.83799006 29.76417089 -56.13454105 28.16506322 -55.43341064 26.56494141 C-43.96869398 0.42202207 -43.96869398 0.42202207 -32.10131836 -4.92993164 C-20.77826739 -8.77549612 -9.68405917 -7.16600126 0 0 Z " fill="#CACACA" transform="translate(229.788818359375,186.054931640625)"/>
<path d="M0 0 C2.75 1.125 2.75 1.125 4.5625 3.0625 C6.22418347 7.34789421 6.49305353 11.56198519 6.75 16.125 C5.945625 15.96 5.14125 15.795 4.3125 15.625 C0.09112648 15.03252652 -3.99664545 15.03993291 -8.25 15.125 C-9.56626692 11.50526598 -10.25 9.02932869 -10.25 5.125 C-7.38952271 1.83291223 -4.33200814 0.1666157 0 0 Z " fill="#A2A2A2" transform="translate(332.25,200.875)"/>
<path d="M0 0 C0.99 0.66 1.98 1.32 3 2 C3 5.04200046 2.44513658 7.99532806 2 11 C1.34 11 0.68 11 0 11 C0 11.66 0 12.32 0 13 C-3.46153846 16 -3.46153846 16 -6 16 C-6 16.99 -6 17.98 -6 19 C-6.66 19 -7.32 19 -8 19 C-6.60121198 14.53202662 -4.86369228 10.36177921 -2.875 6.125 C-2.33617187 4.97257813 -1.79734375 3.82015625 -1.2421875 2.6328125 C-0.62730469 1.32957031 -0.62730469 1.32957031 0 0 Z " fill="#D0D0D0" transform="translate(189,235)"/>
<path d="M0 0 C1.98 0 3.96 0 6 0 C5.67 0.66 5.34 1.32 5 2 C4.3620752 2.13567383 3.72415039 2.27134766 3.06689453 2.41113281 C0.5443569 2.87617643 0.5443569 2.87617643 -1.0703125 6.421875 C-1.76959543 7.85766504 -2.45397424 9.30078847 -3.125 10.75 C-3.47175781 11.46671875 -3.81851563 12.1834375 -4.17578125 12.921875 C-5.92325467 16.56411845 -7.55801916 20.22409141 -9 24 C-10.4606285 21.35261084 -11 20.10551666 -11 17 C-11.33 17 -11.66 17 -12 17 C-12.33 15.02 -12.66 13.04 -13 11 C-12.34 11 -11.68 11 -11 11 C-10.34 11.66 -9.68 12.32 -9 13 C-8.01 13.33 -7.02 13.66 -6 14 C-5.71125 12.948125 -5.4225 11.89625 -5.125 10.8125 C-4.22774807 7.77181289 -3.23576581 4.91287656 -2 2 C-1.34 2 -0.68 2 0 2 C0 1.34 0 0.68 0 0 Z " fill="#CACACA" transform="translate(205,237)"/>
<path d="M0 0 C3.13906582 3.13906582 4.49593201 5.5894051 5 10 C1.7169902 8.3584951 0.72962081 5.17097149 -1 2 C-3.85194705 1.76233775 -6.2009372 1.59551116 -9 2 C-13.38355398 5.75733198 -15.55433166 11.83803609 -18 17 C-18.33 17 -18.66 17 -19 17 C-19.20140476 13.37471432 -18.85776765 11.13498292 -17 8 C-16.34 8 -15.68 8 -15 8 C-14.9175 7.2575 -14.835 6.515 -14.75 5.75 C-13.83947526 2.41140928 -12.68232473 1.14585979 -10 -1 C-6.31779211 -2.71836368 -3.58121208 -1.64138887 0 0 Z " fill="#E4E4E4" transform="translate(331,230)"/>
<path d="M0 0 C-0.33 0.66 -0.66 1.32 -1 2 C-3.02265829 2.22836465 -5.04555758 2.45510203 -7.0703125 2.6640625 C-9.60908145 3.10603442 -10.48014339 3.94819357 -12 6 C-14.83159919 8.92598583 -17.78524006 11.49963116 -21 14 C-21.33 13.34 -21.66 12.68 -22 12 C-18.71506049 6.34990405 -14.81134197 2.20847428 -8.4375 0.1875 C-5.61443744 -0.02965866 -2.83017149 -0.06581794 0 0 Z " fill="#D7D7D7" transform="translate(212,221)"/>
<path d="M0 0 C0.99 0.33 1.98 0.66 3 1 C1.6875 3.5 1.6875 3.5 0 6 C-0.99 6 -1.98 6 -3 6 C-3.33 6.99 -3.66 7.98 -4 9 C-5.87617698 10.84499398 -7.92737609 12.3683599 -10 14 C-10.33 13.01 -10.66 12.02 -11 11 C-9.70703125 9.0625 -9.70703125 9.0625 -7.8125 7 C-7.20019531 6.319375 -6.58789062 5.63875 -5.95703125 4.9375 C-4.04671732 3.04625108 -2.2981297 1.40006299 0 0 Z " fill="#E6E6E6" transform="translate(194,183)"/>
<path d="M0 0 C1.32 0.66 2.64 1.32 4 2 C2.74136239 5.485458 1.25920421 8.08186123 -1 11 C-1.68177416 12.32567199 -2.35191436 13.65753688 -3 15 C-3.33 15.33 -3.66 15.66 -4 16 C-3.67 16.66 -3.34 17.32 -3 18 C-4.32 18 -5.64 18 -7 18 C-5.06375702 11.79522136 -2.74390859 5.89174281 0 0 Z " fill="#E2E2E2" transform="translate(178,204)"/>
<path d="M0 0 C0.7734375 0.495 0.7734375 0.495 1.5625 1 C1.2325 1.66 0.9025 2.32 0.5625 3 C-0.32953125 2.89300781 -1.2215625 2.78601563 -2.140625 2.67578125 C-3.31109375 2.55589844 -4.4815625 2.43601563 -5.6875 2.3125 C-6.84765625 2.18488281 -8.0078125 2.05726563 -9.203125 1.92578125 C-12.76216794 2.00745011 -13.91927725 2.57527562 -16.4375 5 C-16.7675 4.34 -17.0975 3.68 -17.4375 3 C-18.0975 2.67 -18.7575 2.34 -19.4375 2 C-6.1078668 -2.50579151 -6.1078668 -2.50579151 0 0 Z " fill="#E4E4E4" transform="translate(215.4375,180)"/>
<path d="M0 0 C0.33 1.32 0.66 2.64 1 4 C-3.29833361 7.14512215 -6.82069003 8.75696561 -12 10 C-11.01 10.66 -10.02 11.32 -9 12 C-9.99 12.66 -10.98 13.32 -12 14 C-12.99 13.01 -13.98 12.02 -15 11 C-11.61200044 7.81795786 -8.48185769 4.99093899 -4.125 3.25 C-0.90484372 2.36332397 -0.90484372 2.36332397 0 0 Z " fill="#D3D3D3" transform="translate(322,212)"/>
<path d="M0 0 C-0.66 1.32 -1.32 2.64 -2 4 C-2.66 4 -3.32 4 -4 4 C-4.391875 4.598125 -4.78375 5.19625 -5.1875 5.8125 C-7.72606783 8.87628876 -10.29910129 9.60343445 -14 11 C-12.84307616 6.08307367 -9.91389093 4.03767053 -6.0703125 1.13671875 C-4 0 -4 0 0 0 Z " fill="#E3E3E3" transform="translate(307,191)"/>
<path d="M0 0 C0.33 0.66 0.66 1.32 1 2 C2.64363134 2.72159424 4.31050386 3.39351421 6 4 C6.18311068 8.0284349 5.94158017 10.48375245 4 14 C3.13116294 12.42466914 2.28040932 10.83935491 1.4375 9.25 C0.96183594 8.36828125 0.48617187 7.4865625 -0.00390625 6.578125 C-1.07998186 3.79298812 -1.06528748 2.73019786 0 0 Z " fill="#E1E1E1" transform="translate(225,204)"/>
<path d="M0 0 C3.36947542 3.03913469 5.30422175 6.06857693 7.3125 10.125 C8.11107422 11.70667969 8.11107422 11.70667969 8.92578125 13.3203125 C9.28027344 14.20460937 9.63476562 15.08890625 10 16 C9.67 16.66 9.34 17.32 9 18 C5.88770267 15.45357491 5.22116068 12.74489276 4 9 C3.34 8.67 2.68 8.34 2 8 C0.6250851 5.09740189 0 3.23861295 0 0 Z " fill="#DDDDDD" transform="translate(233,191)"/>
<path d="M0 0 C1.98 0 3.96 0 6 0 C6.66 2.31 7.32 4.62 8 7 C7.01 7.33 6.02 7.66 5 8 C2.3125 6.3125 2.3125 6.3125 0 4 C0 2.68 0 1.36 0 0 Z " fill="#919492" transform="translate(242,296)"/>
<path d="M0 0 C3.05001831 3.66002197 7 9.07851471 7 14 C5 14 5 14 3.125 12.1875 C2.42375 11.465625 1.7225 10.74375 1 10 C-0.31558703 8.97676564 -1.64377755 7.96873032 -3 7 C-1.68 7 -0.36 7 1 7 C0.67 4.69 0.34 2.38 0 0 Z " fill="#CECECE" transform="translate(338,210)"/>
<path d="M0 0 C3 1 3 1 4.38671875 3.21484375 C4.81597656 4.11332031 5.24523437 5.01179687 5.6875 5.9375 C6.12449219 6.83339844 6.56148437 7.72929687 7.01171875 8.65234375 C8 11 8 11 8 13 C8.66 13 9.32 13 10 13 C10 13.99 10 14.98 10 16 C10.66 16.33 11.32 16.66 12 17 C11.34 18.32 10.68 19.64 10 21 C9.7326001 20.43490723 9.4652002 19.86981445 9.18969727 19.28759766 C7.98085558 16.73329232 6.77168183 14.17914433 5.5625 11.625 C5.14162109 10.73554688 4.72074219 9.84609375 4.28710938 8.9296875 C3.88427734 8.07890625 3.48144531 7.228125 3.06640625 6.3515625 C2.69459229 5.56604004 2.32277832 4.78051758 1.93969727 3.97119141 C1.30575142 2.641371 0.65883376 1.31766752 0 0 Z " fill="#DEDEDE" transform="translate(211,239)"/>
<path d="M0 0 C1.74627478 2.61941217 2.38722388 4.03824877 3 7 C2.01 7.33 1.02 7.66 0 8 C0 8.66 0 9.32 0 10 C-0.61875 10.28875 -1.2375 10.5775 -1.875 10.875 C-4.13325765 11.93720042 -4.13325765 11.93720042 -6 14 C-5.31113213 10.61108678 -4.01283514 7.81988387 -2.4375 4.75 C-1.75494141 3.41195312 -1.75494141 3.41195312 -1.05859375 2.046875 C-0.70925781 1.37140625 -0.35992187 0.6959375 0 0 Z " fill="#E2E2E0" transform="translate(292,202)"/>
<path d="M0 0 C1.98 0 3.96 0 6 0 C5.67 0.66 5.34 1.32 5 2 C4.38640625 2.08121094 3.7728125 2.16242188 3.140625 2.24609375 C0.6957479 2.85712412 0.6957479 2.85712412 -0.703125 5.72265625 C-1.46882812 7.37587891 -1.46882812 7.37587891 -2.25 9.0625 C-2.77078125 10.16722656 -3.2915625 11.27195313 -3.828125 12.41015625 C-4.21484375 13.26480469 -4.6015625 14.11945313 -5 15 C-6.23593891 11.29218328 -5.5678132 10.32489747 -4.0625 6.8125 C-3.68222656 5.91144531 -3.30195313 5.01039063 -2.91015625 4.08203125 C-2.60980469 3.39496094 -2.30945313 2.70789063 -2 2 C-1.34 2 -0.68 2 0 2 C0 1.34 0 0.68 0 0 Z " fill="#E7E7E7" transform="translate(205,237)"/>
<path d="M0 0 C2.475 0.99 2.475 0.99 5 2 C2.9887485 3.00562575 0.9848767 4.00687423 -1.0625 4.9375 C-3.09606201 6.05267917 -4.44694668 7.29164135 -6 9 C-6.66 7.68 -7.32 6.36 -8 5 C-5 4 -5 4 -2 4 C-1.34 2.68 -0.68 1.36 0 0 Z " fill="#E2E2E2" transform="translate(203,193)"/>
<path d="M0 0 C2 3.75 2 3.75 2 6 C-1.46153846 9 -1.46153846 9 -4 9 C-4 9.99 -4 10.98 -4 12 C-4.66 12 -5.32 12 -6 12 C-4.88194029 8.12979331 -3.9704892 5.71218579 -1 3 C-0.67 2.01 -0.34 1.02 0 0 Z " fill="#C5C5C5" transform="translate(187,242)"/>
<path d="M0 0 C3.37503669 1.1858237 5.64722731 2.27573689 8 5 C6.02 5.99 6.02 5.99 4 7 C2.35 5.02 0.7 3.04 -1 1 C-0.67 0.67 -0.34 0.34 0 0 Z " fill="#E3E3E3" transform="translate(221,182)"/>
<path d="M0 0 C2.31 0.66 4.62 1.32 7 2 C7.33 3.32 7.66 4.64 8 6 C3.545 5.01 3.545 5.01 -1 4 C-0.67 2.68 -0.34 1.36 0 0 Z " fill="#E1E1E1" transform="translate(312,202)"/>
<path d="M0 0 C4.11087838 1.89732848 5.94872955 4.0054207 8 8 C7.34 8.66 6.68 9.32 6 10 C5.4225 9.071875 4.845 8.14375 4.25 7.1875 C2.28365288 4.40184158 0.81962028 2.81261304 -2 1 C-1.34 0.67 -0.68 0.34 0 0 Z " fill="#DDDDDD" transform="translate(217,195)"/>
<path d="M0 0 C0.33 0 0.66 0 1 0 C1 1.65 1 3.3 1 5 C1.66 5 2.32 5 3 5 C2.67 5.66 2.34 6.32 2 7 C1.01 7.33 0.02 7.66 -1 8 C-2.66710346 9.49985609 -2.66710346 9.49985609 -4 11 C-3.52269162 9.5410574 -3.04308958 8.08286504 -2.5625 6.625 C-2.29566406 5.81289062 -2.02882813 5.00078125 -1.75390625 4.1640625 C-1 2 -1 2 0 0 Z " fill="#D1D1D1" transform="translate(299,237)"/>
<path d="M0 0 C-1.49836105 3.11198065 -3.19933758 6.0534615 -5 9 C-5.66 8.67 -6.32 8.34 -7 8 C-4.18918919 0 -4.18918919 0 0 0 Z " fill="#D9D9D9" transform="translate(190,188)"/>
<path d="M0 0 C1.32 0.66 2.64 1.32 4 2 C3.34 3.65 2.68 5.3 2 7 C1.01 7 0.02 7 -1 7 C-0.67 4.69 -0.34 2.38 0 0 Z " fill="#DCDCDC" transform="translate(178,204)"/>
<path d="M0 0 C3 3.625 3 3.625 3 7 C1.68 6.67 0.36 6.34 -1 6 C-1.33 4.68 -1.66 3.36 -2 2 C-1.34 2 -0.68 2 0 2 C0 1.34 0 0.68 0 0 Z " fill="#858786" transform="translate(247,297)"/>
<path d="M0 0 C0.33 0.99 0.66 1.98 1 3 C1.99 3.33 2.98 3.66 4 4 C4 4.66 4 5.32 4 6 C2.35 5.67 0.7 5.34 -1 5 C-1.33 3.68 -1.66 2.36 -2 1 C-1.34 0.67 -0.68 0.34 0 0 Z " fill="#A5A8A6" transform="translate(99,282)"/>
<path d="M0 0 C2.64 0 5.28 0 8 0 C8 0.66 8 1.32 8 2 C5.36 2.33 2.72 2.66 0 3 C0 2.01 0 1.02 0 0 Z " fill="#A1A1A1" transform="translate(408,276)"/>
<path d="M0 0 C0.66 1.32 1.32 2.64 2 4 C0.625 6 0.625 6 -1 8 C-1.66 8 -2.32 8 -3 8 C-1.125 2.25 -1.125 2.25 0 0 Z " fill="#DDDDDD" transform="translate(182,196)"/>
<path d="M0 0 C2 1 4 2 6 3 C5.34 4.32 4.68 5.64 4 7 C3.34 7 2.68 7 2 7 C1.855625 6.401875 1.71125 5.80375 1.5625 5.1875 C1.1127561 3.43849596 0.57107659 1.71322977 0 0 Z " fill="#DCDCDC" transform="translate(325,193)"/>
<path d="M0 0 C0.66 0 1.32 0 2 0 C1.46930939 3.82097239 0.50298434 6.06171403 -2 9 C-2.20140476 5.37471432 -1.85776765 3.13498292 0 0 Z " fill="#D6D6D6" transform="translate(314,238)"/>
<path d="M0 0 C1.65 0.33 3.3 0.66 5 1 C3.35 2.98 1.7 4.96 0 7 C-0.66 5.68 -1.32 4.36 -2 3 C-1.34 2.01 -0.68 1.02 0 0 Z " fill="#E9E9E9" transform="translate(306,205)"/>
<path d="M0 0 C0.33 1.32 0.66 2.64 1 4 C-0.65 4.66 -2.3 5.32 -4 6 C-4.66 5.34 -5.32 4.68 -6 4 C-4.7934375 3.566875 -4.7934375 3.566875 -3.5625 3.125 C-0.8673532 2.26737432 -0.8673532 2.26737432 0 0 Z " fill="#E0E0E0" transform="translate(322,212)"/>
</svg>
